<?xml version="1.0" standalone="no"?>
<!DOCTYPE svg PUBLIC "-//W3C//DTD SVG 20010904//EN"
 "http://www.w3.org/TR/2001/REC-SVG-20010904/DTD/svg10.dtd">
<svg version="1.0" xmlns="http://www.w3.org/2000/svg"
 width="249.000000pt" height="249.000000pt" viewBox="0 0 249.000000 249.000000"
 preserveAspectRatio="xMidYMid meet">

<g transform="translate(0.000000,249.000000) scale(0.100000,-0.100000)"
fill="#000000" stroke="none">
<path d="M1193 2483 c32 -2 81 -2 110 0 29 2 3 3 -58 3 -60 0 -84 -1 -52 -3z"/>
<path d="M1068 2473 c6 -2 18 -2 25 0 6 3 1 5 -13 5 -14 0 -19 -2 -12 -5z"/>
<path d="M1393 2473 c9 -2 23 -2 30 0 6 3 -1 5 -18 5 -16 0 -22 -2 -12 -5z"/>
<path d="M1508 2453 c6 -2 18 -2 25 0 6 3 1 5 -13 5 -14 0 -19 -2 -12 -5z"/>
<path d="M955 2410 c-122 -30 -133 -34 -255 -93 -139 -67 -270 -170 -405 -321
-54 -59 -151 -222 -180 -301 -10 -27 -21 -54 -25 -60 -4 -5 -15 -38 -24 -72
-118 -432 0 -879 313 -1192 175 -175 354 -273 616 -337 107 -26 382 -24 495 4
182 45 306 100 456 204 67 45 216 191 257 248 66 95 89 134 152 260 24 49 66
196 84 296 14 76 14 300 1 362 -6 26 -15 70 -21 97 -30 136 -105 304 -189 424
-150 212 -409 400 -640 463 -156 42 -197 47 -360 47 -146 -1 -177 -4 -275 -29z
m348 -26 c3 -3 2 -14 -3 -23 -6 -9 -18 -43 -29 -76 -11 -33 -24 -61 -30 -63
-5 -2 -20 16 -32 40 l-22 43 -13 -30 c-7 -16 -13 -36 -14 -42 0 -7 -6 -13 -13
-13 -13 0 -87 147 -78 155 2 3 17 5 33 5 23 0 28 -4 28 -24 0 -31 10 -56 21
-56 5 0 9 7 9 15 0 21 22 65 32 65 5 0 16 -16 24 -36 14 -34 16 -35 29 -18 8
11 15 29 15 42 0 21 27 31 43 16z m113 -94 c16 -59 28 -79 45 -80 3 0 11 17
17 38 25 84 25 82 -2 82 -27 0 -36 17 -13 26 22 8 132 -30 132 -46 0 -15 -8
-16 -36 -5 -13 5 -19 -4 -29 -44 -7 -28 -9 -58 -6 -67 5 -14 1 -15 -26 -10
-18 4 -50 10 -70 13 -31 4 -37 9 -40 31 -4 36 -51 39 -56 5 -3 -23 -17 -28
-46 -17 -23 9 -20 21 6 27 12 4 19 9 16 13 -4 3 11 34 34 67 46 67 46 67 74
-33z m-376 10 c22 -32 48 -63 57 -69 21 -11 17 -16 -19 -25 -21 -5 -30 -2 -38
14 -12 22 -49 27 -51 8 -1 -7 -2 -20 -3 -28 0 -9 -13 -16 -30 -18 -24 -3 -28
-1 -19 10 10 13 22 57 27 101 4 35 17 67 26 67 5 0 27 -27 50 -60z m-150 3
c71 -64 18 -159 -103 -189 -21 -5 -28 -3 -26 7 7 34 -38 149 -58 149 -52 0 80
59 134 60 13 0 37 -12 53 -27z m775 -3 c3 -5 14 -10 24 -10 26 0 42 -22 30
-40 -8 -11 -12 -12 -16 -2 -7 17 -43 15 -43 -2 0 -8 9 -18 20 -21 21 -7 27
-30 11 -40 -5 -3 -12 -1 -16 5 -10 16 -32 12 -39 -7 -8 -20 12 -35 37 -27 21
7 22 -9 2 -26 -13 -11 -23 -9 -59 8 l-43 22 30 60 c16 34 26 68 23 76 -6 16
29 20 39 4z m226 -91 c16 -13 20 -22 12 -25 -22 -10 -83 -104 -83 -129 l0 -26
-40 23 c-25 15 -34 25 -25 28 20 7 96 123 90 138 -7 19 20 14 46 -9z m-1291
-31 c0 -20 64 -107 80 -108 10 0 5 -9 -14 -26 l-29 -26 -13 31 c-7 17 -22 41
-33 53 -12 12 -21 25 -21 30 0 4 -7 8 -15 8 -22 0 -18 15 8 33 27 19 37 21 37
5z m782 -28 c99 -12 173 -35 273 -86 323 -164 515 -474 515 -832 0 -406 -235
-741 -620 -886 -70 -26 -238 -56 -315 -56 -55 0 -241 27 -270 39 -11 5 -51 21
-90 37 -89 36 -226 128 -296 197 -107 107 -181 225 -228 364 -117 346 -34 700
223 958 178 179 363 260 631 277 45 3 57 3 177 -12z m604 -43 c27 -24 26 -47
-2 -47 -8 0 -13 4 -10 9 6 10 -18 34 -26 26 -3 -3 -3 -28 0 -55 4 -45 2 -50
-20 -60 -47 -22 -105 21 -81 59 13 20 29 14 25 -10 -4 -21 16 -35 30 -21 7 7
7 21 -1 43 -9 26 -8 37 4 56 20 29 47 29 81 0z m-1436 -39 c27 -29 50 -59 50
-65 0 -9 -21 -13 -71 -13 -76 0 -85 -10 -34 -38 17 -9 32 -18 34 -19 6 -4 -31
-43 -41 -43 -4 0 -8 5 -8 11 0 6 -20 34 -45 62 -25 29 -45 55 -45 59 0 5 32 8
70 8 39 0 70 3 70 7 0 14 -34 43 -52 43 -21 0 -23 11 -6 28 19 19 24 16 78
-40z m1528 -52 c2 -9 -2 -16 -8 -16 -6 0 -29 -16 -50 -37 -38 -34 -39 -37 -24
-54 9 -10 21 -16 25 -13 5 3 9 0 9 -6 0 -12 48 -6 108 12 55 17 55 -3 -3 -90
-41 -63 -31 -74 47 -48 90 29 96 22 43 -48 l-36 -46 61 0 c33 0 60 -4 60 -10
0 -5 -24 -26 -54 -46 -54 -36 -79 -74 -49 -74 27 0 97 23 114 37 20 17 29 7
29 -30 0 -18 -4 -27 -12 -25 -19 7 -99 -20 -120 -38 -20 -19 -17 -23 -41 64
l-15 52 32 26 31 26 -36 -5 c-56 -8 -68 5 -40 43 27 37 21 49 -13 27 -23 -16
-25 -15 -49 22 -22 34 -24 41 -12 57 9 13 10 24 4 36 -11 21 -35 24 -42 6 -2
-8 -27 12 -60 47 -46 51 -52 61 -38 69 29 16 91 80 91 94 0 12 3 12 23 0 12
-9 23 -23 25 -32z m-1710 -63 c10 -10 37 -33 60 -52 24 -19 39 -38 34 -43 -5
-5 -37 -14 -71 -21 -63 -13 -63 -13 -39 -29 13 -9 32 -17 42 -19 17 -4 17 -5
-2 -29 l-21 -25 -16 22 c-9 13 -36 36 -60 53 -25 17 -45 35 -45 40 0 4 32 14
70 21 39 7 70 14 70 17 0 11 -37 31 -57 32 -26 0 -27 3 -11 30 16 25 23 25 46
3z m-78 -191 c61 -41 70 -64 45 -111 -13 -26 -22 -31 -51 -31 -19 0 -48 7 -65
16 -16 8 -39 12 -49 9 -23 -7 -25 3 -8 40 14 30 22 31 47 6 24 -24 88 -38 103
-23 6 6 8 18 5 26 -8 21 -67 56 -94 56 -26 0 -27 3 -13 31 14 25 16 25 80 -19z
m-140 -152 c13 -8 11 -11 -7 -16 -27 -8 -31 -34 -5 -34 10 0 27 7 38 15 30 22
80 19 98 -7 21 -29 20 -51 -2 -78 -13 -17 -24 -21 -40 -16 -27 9 -29 26 -3 26
22 0 36 29 21 44 -8 8 -22 5 -50 -12 -21 -12 -48 -22 -59 -22 -24 0 -54 40
-46 64 3 9 7 23 10 31 5 17 23 19 45 5z m2220 -247 c0 -16 3 -45 6 -65 6 -34
4 -38 -14 -38 -16 0 -19 5 -15 21 6 21 3 22 -38 17 -24 -3 -52 -9 -61 -13 -15
-6 -18 -2 -18 22 0 27 1 28 45 25 61 -5 79 2 66 27 -11 20 -5 31 16 31 8 0 13
-11 13 -27z m-2225 -14 c-7 -21 -5 -22 44 -17 51 5 61 -1 42 -30 -6 -10 -21
-12 -56 -6 -46 6 -48 6 -42 -15 4 -16 1 -21 -9 -19 -8 2 -15 6 -15 11 1 4 1
27 1 52 0 39 3 45 21 45 16 0 19 -4 14 -21z m85 -121 c0 -6 -12 -27 -27 -46
l-26 -35 25 5 c25 5 26 2 42 -85 10 -49 16 -90 14 -91 -2 -2 -11 -8 -22 -13
-17 -9 -16 -11 8 -17 28 -7 33 -24 14 -45 -11 -11 -10 -13 4 -8 14 5 24 -5 43
-43 14 -27 25 -53 25 -57 0 -4 -23 -18 -51 -30 -61 -27 -56 -44 11 -36 80 9
87 1 46 -53 -19 -25 -37 -51 -40 -57 -3 -8 -10 -6 -20 7 -15 18 -14 22 4 41
28 30 25 38 -13 31 -32 -6 -34 -4 -57 43 -22 48 -22 81 0 81 5 0 10 -9 10 -20
0 -11 5 -20 10 -20 6 0 8 11 4 25 -5 19 -2 25 10 25 9 0 16 -7 16 -15 0 -8 4
-15 9 -15 16 0 23 20 12 34 -6 7 -7 16 -3 21 4 4 -21 4 -55 0 -35 -4 -63 -4
-63 0 0 4 13 20 30 35 17 15 30 31 30 34 0 3 -15 6 -32 6 -62 0 -66 16 -10 44
53 27 72 45 50 47 -32 3 -74 -4 -85 -13 -14 -11 -17 -5 -27 50 -5 28 -3 33 12
30 10 -2 16 -11 14 -22 -2 -11 2 -16 10 -14 7 3 13 13 13 23 0 10 6 20 13 22
7 3 12 -4 12 -16 0 -12 6 -21 15 -21 10 0 14 9 12 30 -2 29 -3 30 -54 30 -29
0 -53 3 -53 8 0 4 14 22 30 40 17 18 30 36 30 39 0 3 -16 3 -35 0 -29 -5 -35
-3 -35 12 0 15 10 18 65 19 44 1 65 -2 65 -10z m2130 -19 c0 -14 -7 -19 -26
-19 -33 0 -30 -33 4 -38 14 -2 22 -10 22 -22 0 -16 -10 -19 -65 -22 -65 -3
-65 -3 -65 24 0 23 4 27 28 25 18 -1 27 3 27 13 0 10 -9 14 -27 13 -30 -2 -31
0 -22 32 4 18 12 20 64 17 51 -3 60 -7 60 -23z m-57 -136 c49 -6 54 -12 41
-60 -4 -13 -13 -23 -21 -23 -10 0 -12 6 -8 20 7 23 -13 28 -21 5 -9 -24 -37
-19 -29 5 5 15 2 20 -10 20 -12 0 -16 -6 -12 -20 3 -13 0 -20 -8 -20 -21 0
-27 16 -19 55 5 28 10 35 23 29 9 -3 37 -9 64 -11z m37 -175 c0 -28 -14 -36
-53 -31 l-42 4 28 -25 c37 -35 34 -46 -15 -46 -41 0 -41 0 -23 -20 10 -12 25
-18 32 -16 8 3 13 -2 13 -14 0 -33 -18 -32 -53 3 -19 18 -45 40 -58 49 -30 20
-22 28 29 35 l41 5 -30 25 c-16 14 -29 29 -29 33 0 5 36 8 80 7 44 -1 80 -5
80 -9z m-136 -164 c20 -20 20 -63 0 -92 -23 -33 -88 -31 -110 3 -18 28 -13 64
12 89 20 21 78 21 98 0z m-1779 -109 c30 -29 32 -68 5 -95 -29 -29 -64 -25
-94 11 -31 37 -33 62 -6 89 27 27 66 25 95 -5z m1668 -5 c18 -17 40 -33 50
-36 16 -5 16 -7 -4 -35 -22 -32 -65 -40 -75 -14 -6 16 -64 22 -64 6 0 -4 18
-21 40 -36 38 -27 40 -29 24 -46 -18 -20 -36 -25 -31 -10 1 5 -11 20 -26 35
-27 25 -29 26 -52 9 -14 -10 -25 -20 -25 -23 0 -3 16 -22 35 -42 l35 -36 -30
-25 c-39 -33 -64 -41 -90 -27 -32 17 -43 56 -25 91 9 16 19 29 24 29 5 0 37
29 72 65 48 50 70 65 94 66 23 1 25 3 8 6 -25 5 -30 22 -11 41 16 16 14 16 51
-18z m-1609 -66 c21 -8 20 -28 0 -49 -22 -21 -13 -28 20 -15 36 13 47 5 36
-26 -13 -33 -13 -34 5 -28 8 4 15 12 15 20 0 18 8 18 28 -2 13 -14 14 -17 1
-24 -8 -5 -31 -22 -53 -39 -47 -38 -71 -41 -62 -8 4 12 9 34 12 50 l7 27 -36
-15 c-67 -28 -74 -13 -27 49 17 22 30 46 30 53 0 15 2 15 24 7z m211 -179 c14
-13 25 -36 25 -50 0 -32 -33 -65 -64 -65 -30 0 -82 42 -72 58 11 18 23 14 29
-8 5 -20 32 -26 53 -12 30 20 18 72 -16 72 -11 0 -20 7 -20 15 0 23 38 18 65
-10z m1147 -31 c52 -44 55 -50 28 -59 -15 -5 -26 0 -40 17 l-20 23 6 -27 c9
-40 -2 -51 -32 -32 -29 20 -40 14 -25 -14 7 -13 7 -22 -1 -30 -19 -19 -25 -14
-32 26 -3 20 -8 49 -11 65 -4 22 -2 27 14 27 11 0 23 -4 26 -10 11 -18 26 -10
25 13 -4 49 4 49 62 1z m-1042 -25 c31 -16 40 -27 40 -48 1 -25 1 -25 15 -7
18 23 45 14 46 -16 1 -17 2 -18 6 -5 7 27 83 20 83 -8 0 -7 7 -18 16 -25 13
-11 16 -10 21 8 6 25 11 26 73 10 25 -6 69 -10 98 -9 49 1 52 0 52 -24 0 -29
-8 -32 -26 -7 -9 12 -16 14 -23 6 -8 -7 -4 -17 14 -34 42 -40 26 -96 -27 -88
-26 3 -39 38 -14 38 9 0 16 -5 16 -11 0 -5 5 -7 11 -3 7 4 1 16 -15 33 -16 16
-26 39 -26 56 0 49 -22 12 -24 -39 -1 -44 -2 -46 -30 -46 -21 0 -26 3 -19 13
13 16 15 85 3 92 -15 9 -45 -11 -71 -49 -24 -36 -48 -47 -50 -23 -5 44 -7 57
-13 83 l-7 28 -30 -47 c-16 -26 -33 -47 -38 -47 -5 0 -12 18 -16 41 l-7 41
-28 -27 c-39 -38 -51 -26 -35 35 8 32 10 52 3 56 -12 8 -37 -24 -44 -58 -7
-29 -12 -32 -38 -22 -17 6 -22 34 -7 34 5 0 17 20 28 45 10 25 19 45 20 45 1
0 21 -9 43 -21z m876 -18 c-3 -4 6 -26 20 -50 26 -46 25 -56 -5 -64 -15 -3
-20 2 -25 25 -3 16 -15 43 -27 59 l-20 29 23 9 c24 9 42 5 34 -8z m-62 -43 c3
-18 13 -46 21 -61 13 -26 13 -28 -8 -36 -62 -23 -88 -21 -113 6 -29 32 -30 43
-3 77 17 21 54 40 90 45 4 1 10 -14 13 -31z m-138 -55 c3 -27 11 -54 17 -61
14 -17 6 -23 -42 -29 -34 -5 -41 -3 -41 11 0 13 5 16 20 11 14 -5 20 -2 20 10
0 12 -6 15 -20 10 -14 -5 -20 -2 -20 9 0 9 7 16 16 16 9 0 14 7 12 18 -2 11
-11 16 -26 14 -14 -2 -22 2 -22 12 0 13 13 18 67 25 7 0 15 -19 19 -46z m-156
-42 c0 -33 3 -66 6 -75 5 -12 0 -16 -20 -16 -25 0 -26 2 -26 59 0 33 -3 66 -6
75 -5 12 0 16 20 16 25 0 26 -2 26 -59z"/>
<path d="M1360 2290 c0 -5 5 -10 11 -10 5 0 7 5 4 10 -3 6 -8 10 -11 10 -2 0
-4 -4 -4 -10z"/>
<path d="M990 2280 c0 -5 5 -10 11 -10 5 0 7 5 4 10 -3 6 -8 10 -11 10 -2 0
-4 -4 -4 -10z"/>
<path d="M774 2285 c-9 -22 31 -120 51 -123 41 -9 71 61 42 99 -27 36 -83 50
-93 24z"/>
<path d="M1070 2114 c-62 -12 -185 -59 -261 -100 -210 -112 -349 -283 -432
-529 -28 -85 -30 -99 -30 -250 0 -164 4 -195 51 -325 71 -196 221 -366 412
-468 170 -91 324 -121 533 -101 298 27 568 221 707 509 63 128 98 332 80 463
-13 99 -27 159 -47 212 -110 283 -288 457 -569 557 -84 30 -97 31 -254 34 -91
1 -176 0 -190 -2z m120 -106 c6 -24 18 -61 26 -83 9 -22 16 -42 15 -45 -2 -17
13 -81 20 -86 5 -3 16 2 25 10 20 21 34 20 34 -1 0 -22 29 -53 50 -53 20 0 52
33 74 78 20 40 26 40 48 2 22 -39 52 -31 43 12 -7 28 7 58 26 58 4 0 13 -18
19 -40 22 -81 -29 -168 -83 -142 -18 8 -27 5 -48 -15 -35 -32 -99 -42 -134
-19 -24 16 -25 16 -25 -7 0 -12 6 -47 14 -77 8 -30 20 -89 27 -130 l13 -75 7
43 c5 23 18 56 30 73 23 33 109 79 147 79 27 0 73 -22 91 -44 12 -14 9 -16
-20 -16 -60 0 -160 -40 -189 -75 -11 -13 -10 -19 6 -36 58 -65 167 -69 282
-10 23 12 42 25 42 30 0 5 -16 27 -36 48 -52 55 -64 74 -64 105 0 38 13 42 59
19 41 -22 55 -36 56 -60 0 -8 35 -33 78 -57 115 -64 127 -77 127 -146 0 -52
-3 -60 -32 -88 -18 -17 -54 -45 -79 -63 -25 -18 -79 -57 -120 -88 -79 -61
-125 -77 -159 -59 -28 15 -50 68 -50 120 l0 40 -65 -32 c-53 -26 -64 -36 -60
-52 3 -12 7 -32 9 -46 13 -78 64 -130 127 -130 33 0 45 6 81 46 61 65 74 70
90 37 25 -53 81 -35 119 39 l21 42 13 -31 c25 -60 50 -55 50 10 0 50 25 62 43
22 36 -78 -19 -186 -78 -155 -16 9 -26 6 -53 -13 -45 -34 -80 -40 -123 -22
-35 14 -37 14 -55 -9 -10 -13 -32 -29 -49 -36 -36 -15 -152 -9 -158 8 -8 26
-22 10 -22 -25 -1 -141 -80 -252 -235 -329 l-79 -39 64 -8 c85 -10 262 1 320
20 50 16 150 73 150 85 0 4 -34 8 -76 8 -103 0 -114 7 -114 75 0 67 29 135 68
164 37 26 55 26 111 1 76 -35 105 -27 154 45 40 57 113 49 136 -17 11 -30 12
-31 25 -12 24 34 64 167 75 246 24 174 -34 367 -162 535 -46 59 -136 147 -144
139 -2 -2 1 -23 6 -47 14 -60 13 -89 -2 -89 -14 0 -36 63 -57 160 -6 30 -16
71 -21 91 -11 46 -11 69 0 69 14 0 151 -94 192 -132 203 -187 303 -512 239
-773 -23 -95 -97 -247 -145 -299 -33 -36 -37 -38 -82 -32 -64 8 -82 8 -119 1
-24 -5 -45 1 -93 25 l-62 33 -26 -20 c-37 -27 -50 -50 -36 -64 6 -6 47 -14 92
-18 91 -8 109 -19 118 -74 5 -35 2 -41 -37 -77 -55 -51 -186 -105 -291 -121
-150 -22 -357 4 -461 57 -48 25 -98 84 -99 118 -3 58 3 121 13 139 5 10 8 20
6 22 -2 2 -39 -7 -83 -20 -74 -23 -100 -25 -79 -6 5 4 59 34 119 66 188 98
325 176 325 185 0 9 -75 90 -84 90 -2 0 -33 -19 -67 -41 -75 -51 -207 -112
-271 -128 -100 -24 -174 -7 -222 49 -30 37 -33 48 -41 155 -3 44 -8 107 -11
140 -5 58 14 135 34 135 4 0 7 33 8 73 0 71 25 158 58 203 25 34 25 11 -1 -89
-23 -89 -24 -100 -11 -139 21 -62 55 -83 136 -83 37 1 84 7 104 14 32 11 36
15 28 31 -5 10 -16 24 -23 32 -7 7 -50 65 -95 128 -75 105 -82 118 -82 162 0
40 3 48 18 48 26 0 92 -74 92 -102 0 -24 62 -115 137 -203 l41 -49 64 32 c35
17 79 44 98 61 46 38 31 56 -48 57 -94 2 -101 3 -122 24 -42 42 -16 136 58
202 36 32 79 56 86 46 50 -66 66 -83 93 -94 18 -8 46 -14 63 -14 26 0 30 3 30
28 0 16 -9 64 -20 107 -22 86 -26 156 -10 186 16 30 28 23 40 -23z m-91 23
c17 -11 7 -41 -14 -41 -16 0 -18 -6 -15 -62 2 -44 -11 -49 -34 -14 -8 14 -28
31 -42 38 -31 15 -41 48 -15 48 9 0 26 -7 38 -15 20 -14 21 -13 28 13 9 38 28
49 54 33z m343 -8 c10 -9 18 -21 18 -28 0 -40 -86 -155 -116 -155 -21 0 -17 9
21 51 37 41 42 54 25 64 -15 9 -12 52 6 69 19 20 23 20 46 -1z m-162 -23 c0
-5 7 -10 15 -10 17 0 21 -35 5 -45 -6 -4 -17 -1 -25 5 -17 14 -20 60 -5 60 6
0 10 -4 10 -10z m-356 -71 l26 -21 -22 -39 c-25 -44 -37 -47 -84 -18 -30 18
-32 23 -23 47 20 54 59 66 103 31z m-176 -114 c6 -14 16 -25 22 -25 14 0 9
-42 -5 -47 -20 -6 -34 13 -41 55 -7 47 6 57 24 17z m833 -156 c22 -22 19 -49
-5 -49 -13 0 -26 28 -26 58 0 17 7 15 31 -9z m-210 -71 c25 -30 24 -40 -3 -36
-17 2 -24 11 -26 31 -4 33 4 34 29 5z m439 -18 c21 -21 19 -40 -5 -40 -13 0
-25 21 -25 46 0 19 6 18 30 -6z m-1152 -110 c-3 -32 -6 -35 -33 -35 -25 0 -31
4 -33 26 -2 14 2 38 7 53 11 27 11 27 36 9 20 -14 25 -25 23 -53z m918 15 c16
-40 18 -65 4 -65 -10 0 -40 63 -40 86 0 26 21 14 36 -21z m-696 10 c0 -8 7
-15 15 -15 17 0 18 -2 9 -24 -9 -24 -33 -19 -44 10 -14 35 -13 44 5 44 8 0 15
-7 15 -15z m1080 -255 c13 -25 9 -86 -5 -83 -5 1 -11 15 -13 30 -2 15 -8 32
-13 38 -14 14 -11 35 6 35 8 0 19 -9 25 -20z m-480 -154 c0 -8 7 -16 15 -20 8
-3 15 -10 15 -16 0 -17 -31 -24 -41 -9 -12 19 -11 59 1 59 6 0 10 -6 10 -14z
m-430 -84 c0 -4 -15 -16 -32 -27 -18 -10 -67 -43 -108 -72 -117 -82 -137 -66
-23 19 29 21 55 38 58 38 3 0 24 13 46 30 38 27 59 31 59 12z m-295 -113 c4
-6 -2 -13 -14 -16 -24 -6 -24 -7 -11 -52 5 -19 8 -37 5 -39 -2 -2 -27 6 -54
19 -57 25 -71 55 -21 46 26 -6 30 -4 30 17 0 12 3 26 7 29 10 11 51 8 58 -4z
m-175 -94 c0 -15 6 -25 14 -25 23 0 30 -20 12 -38 -14 -14 -17 -14 -36 3 -20
18 -25 41 -14 69 9 25 24 19 24 -9z m1188 -134 c2 -35 0 -51 -7 -46 -6 3 -11
14 -11 23 0 9 -6 29 -14 44 -15 29 -11 40 14 36 11 -2 16 -18 18 -57z m-1033
-10 c3 -11 12 -22 20 -25 20 -7 19 -35 0 -42 -24 -10 -45 15 -45 52 0 37 15
46 25 15z m676 -72 c20 -20 20 -49 0 -49 -12 0 -31 33 -31 54 0 21 6 20 31 -5z"/>
<path d="M914 1693 c-41 -44 -30 -57 61 -65 100 -9 129 -28 133 -86 3 -34 7
-42 23 -42 34 0 81 -30 75 -47 -19 -47 -17 -59 8 -71 31 -14 32 -21 6 -65
l-21 -35 -40 20 c-29 13 -39 24 -35 35 19 48 17 59 -9 71 -21 10 -25 17 -19
35 3 12 11 28 16 35 22 27 -5 10 -29 -19 -14 -17 -59 -53 -99 -80 l-74 -49 34
-48 c19 -26 48 -60 65 -76 l31 -30 0 25 c-1 13 -9 42 -20 64 -21 44 -25 82
-10 105 8 12 15 9 45 -20 22 -21 35 -43 35 -59 0 -15 3 -47 6 -73 3 -27 1 -61
-4 -77 -9 -27 -6 -32 41 -79 l52 -51 42 32 c55 42 62 58 20 46 -51 -14 -104
-11 -111 7 -3 9 -6 40 -6 70 0 45 4 59 25 79 13 14 35 25 48 25 22 0 72 -30
89 -55 5 -6 8 -4 8 5 0 21 -28 158 -41 198 -6 18 -12 43 -14 55 -2 12 -10 49
-17 82 l-13 60 -51 0 c-40 0 -58 6 -90 29 -21 17 -41 33 -44 36 -13 16 -56 40
-73 40 -10 0 -29 -12 -43 -27z"/>
<path d="M1760 1395 c0 -25 -36 -52 -196 -150 -14 -9 -16 -19 -10 -58 4 -26
12 -47 18 -47 30 0 183 85 251 139 88 70 88 72 7 115 -62 32 -70 32 -70 1z"/>
<path d="M1345 1364 c9 -58 27 -124 33 -124 4 0 25 11 46 24 36 22 38 24 18
30 -12 4 -39 28 -61 53 -39 43 -40 44 -36 17z"/>
<path d="M451 1331 c-7 -12 -11 -41 -9 -64 2 -35 7 -43 26 -45 26 -4 31 -42 7
-62 -21 -18 -19 -89 5 -127 41 -68 121 -80 247 -38 81 27 198 85 231 113 20
17 19 18 -34 80 -29 34 -60 72 -68 83 -13 19 -18 20 -48 9 -64 -23 -139 -40
-177 -40 -67 0 -127 36 -158 94 -10 19 -11 18 -22 -3z m359 -101 c45 -23 48
-32 20 -77 -23 -38 -31 -40 -71 -16 -28 17 -30 17 -45 -5 -21 -31 -38 -29
-102 14 -8 5 9 43 28 65 20 22 21 22 57 5 35 -17 38 -17 50 0 7 10 13 21 13
26 0 12 7 10 50 -12z m-235 -50 c22 -24 34 -133 16 -144 -6 -4 -13 -1 -15 6
-11 42 -39 135 -43 146 -8 19 22 14 42 -8z m183 -121 c9 -14 10 -25 4 -31 -15
-15 -32 0 -32 28 0 30 11 31 28 3z"/>
<path d="M1189 1174 c-9 -11 -7 -14 14 -14 32 0 44 16 17 23 -10 3 -24 -1 -31
-9z"/>
<path d="M1284 1011 l-51 -56 29 -55 c15 -30 28 -66 29 -80 0 -14 4 -34 9 -45
7 -18 10 -16 24 18 21 49 30 146 19 218 l-8 55 -51 -55z"/>
<path d="M1090 864 c-60 -39 -119 -67 -165 -81 -42 -13 -71 -89 -54 -142 17
-50 67 -95 134 -120 l56 -21 78 71 c102 92 122 120 117 161 -9 67 -68 169 -98
167 -7 0 -38 -16 -68 -35z m74 -52 c10 -17 18 -82 9 -82 -9 0 -43 63 -43 80 0
12 27 13 34 2z m-49 -62 c0 -20 -4 -24 -22 -22 -28 4 -37 -25 -28 -94 5 -44 4
-54 -8 -54 -8 0 -24 17 -34 38 -12 22 -28 38 -41 40 -24 4 -65 49 -56 63 10
16 51 9 69 -11 23 -26 35 -25 35 2 0 29 39 70 65 66 14 -2 20 -10 20 -28z"/>
<path d="M1795 830 c-3 -5 -3 -10 2 -10 4 0 19 -3 33 -7 22 -6 24 -5 11 10
-15 19 -37 22 -46 7z"/>
<path d="M615 1460 c3 -5 10 -10 16 -10 5 0 9 5 9 10 0 6 -7 10 -16 10 -8 0
-12 -4 -9 -10z"/>
<path d="M2100 1860 c0 -5 5 -10 10 -10 6 0 10 5 10 10 0 6 -4 10 -10 10 -5 0
-10 -4 -10 -10z"/>
<path d="M2115 710 c-18 -29 34 -74 64 -55 17 10 13 52 -5 59 -24 9 -52 7 -59
-4z"/>
<path d="M353 594 c-16 -25 -16 -27 1 -40 23 -16 52 -4 61 26 14 45 -34 56
-62 14z"/>
<path d="M2080 560 c0 -5 9 -10 21 -10 11 0 17 5 14 10 -3 6 -13 10 -21 10 -8
0 -14 -4 -14 -10z"/>
<path d="M1877 421 c-7 -29 11 -51 43 -51 36 0 39 18 7 48 -28 27 -43 28 -50
3z"/>
<path d="M1545 242 c-16 -12 -15 -45 3 -59 26 -19 42 -15 42 11 0 48 -18 68
-45 48z"/>
<path d="M1615 2426 c17 -7 41 -16 55 -20 20 -5 19 -3 -5 8 -16 7 -41 16 -55
20 -20 5 -19 3 5 -8z"/>
<path d="M1710 2390 c8 -5 20 -10 25 -10 6 0 3 5 -5 10 -8 5 -19 10 -25 10 -5
0 -3 -5 5 -10z"/>
<path d="M1756 2372 c12 -11 64 -33 64 -27 0 5 -56 35 -67 35 -4 0 -3 -4 3 -8z"/>
<path d="M1844 2326 c11 -9 24 -16 30 -16 12 0 7 5 -24 19 -24 11 -24 11 -6
-3z"/>
<path d="M1895 2303 c6 -6 51 -41 100 -77 50 -36 72 -50 50 -30 -37 33 -172
130 -150 107z"/>
<path d="M2170 2066 c0 -2 8 -10 18 -17 15 -13 16 -12 3 4 -13 16 -21 21 -21
13z"/>
<path d="M2210 2016 c0 -2 8 -10 18 -17 15 -13 16 -12 3 4 -13 16 -21 21 -21
13z"/>
<path d="M2240 1976 c0 -2 8 -10 18 -17 15 -13 16 -12 3 4 -13 16 -21 21 -21
13z"/>
<path d="M2280 1921 c5 -11 15 -23 21 -27 6 -3 3 5 -6 20 -20 30 -30 35 -15 7z"/>
</g>
</svg>
